<svg xmlns="http://www.w3.org/2000/svg" viewBox="0 0 318.58 113.36"><defs><style>.cls-1{fill:#00017d;}</style></defs><g id="Layer_2" data-name="Layer 2"><g id="Layer_1-2" data-name="Layer 1"><path class="cls-1" d="M144.92,101.06a29.14,29.14,0,0,0,3.48-5.94,31,31,0,0,0,2.46-9.9c.87-10.36-2.07-33.13-2.93-40.55-2.88-24.68-.65-32.38,3.17-38A30.28,30.28,0,0,1,157.27,0a64.67,64.67,0,0,0-2.69,8.55,69.68,69.68,0,0,0,1.59,36.68c6.14,18.13,6.64,33.65,3.32,41.81a26.18,26.18,0,0,1-8,10.93A20.61,20.61,0,0,1,144.92,101.06Z"/><polygon class="cls-1" points="8.05 12.49 9.58 13.84 11.74 11.87 8.98 9.31 7.5 10.67 5.97 9.31 3.98 11.27 6.65 13.84 8.05 12.49"/><path class="cls-1" d="M71.79,20.81C70.94,19.3,70,18.55,69,18.55c-.75,0-1.71.72-2.86,2.15-.74,1-1.37,1.83-1.9,2.56l-1.39,1.92-.25.37H53.07l.32-.44c.44-.61.86-1.26,1.28-1.93a4.91,4.91,0,0,0,.88-2.45,2.75,2.75,0,0,0-1.19-2.39,4.41,4.41,0,0,0-2.6-.72,24.62,24.62,0,0,0-4.77.6l-2.05,4.44h.22a3.71,3.71,0,0,1,2.65,1.06,4.28,4.28,0,0,1,1,1.83H11.39L9.61,16.67l-3,2.69.16.75L2.56,22.45a2.28,2.28,0,0,0-1.13,1.41L0,28.36l7.05,1.06,1.23-2.1L8.81,30H49.15l1.08-1.36.7,1.36H62.28l1.1-1.83,7.33,3.3c.48-.82.82-1.42,1-1.8a12.39,12.39,0,0,0,1.63-4.09,7.79,7.79,0,0,0-.56-2.42A14.77,14.77,0,0,0,71.79,20.81ZM3.69,24.43l3.58-2,.53,2.67ZM66,24.48l.66-.81a5.45,5.45,0,0,1,.72-.79,3.09,3.09,0,0,1,.59-.46l.12-.05a.53.53,0,0,1,.28-.06c.71,0,1.28.55,1.7,1.63a7,7,0,0,1,.5,2.59Z"/><path class="cls-1" d="M99.14,23.18a27.24,27.24,0,0,1-4.45-2l-2-1.09a4.58,4.58,0,0,0-2-.72,2.16,2.16,0,0,0-1.57.82L88,21.41a16.69,16.69,0,0,0-1.35,1.64,4,4,0,0,1,1.08-.2,7,7,0,0,1,3.21,1.29,12.87,12.87,0,0,0,2.87,1.41H80.15a4.33,4.33,0,0,1-.82-.05c-.32-.09-.47-.63-.47-1.61V11.43l-3.42,3.74V27.11l0,.57v.84c0,1,.58,1.45,1.76,1.45h14a2.27,2.27,0,0,0,1.5-.36l.75-.65a5.4,5.4,0,0,1,3.67-1.47,14.43,14.43,0,0,1,3.42.45l2.53-4.11A12.61,12.61,0,0,1,99.14,23.18Z"/><polygon class="cls-1" points="92.03 33.95 94.85 36.42 96.85 34.47 94.09 31.92 92.03 33.95"/><path class="cls-1" d="M39.61,94.46c-1.5,3.16-2.24,5.12-2.22,5.86,1.36-.74,2.38-1.32,3-1.73a38.25,38.25,0,0,0,4.8-3.09c.86-.89,1.58-2.68,2.18-5.4a57.49,57.49,0,0,1-5.18,3.06A24.1,24.1,0,0,0,39.61,94.46Z"/><path class="cls-1" d="M62.8,54.07c0-.36-.46-.84-1.39-1.44-.41-.26-1-.6-1.8-1l-3.15,5.07,3.08,2.23A14.48,14.48,0,0,0,62.8,54.07Z"/><path class="cls-1" d="M90.15,57.84c-1.48,0-3.79.88-6.91,2.63a38,38,0,0,0-6.39,4.35q2.37-10.35,2.37-14.56,0-8.71-2.71-11.69c-.62-.7-1.09-1.06-1.39-1.08q-2.25,1.29-4.2,6.47a34.2,34.2,0,0,0-2,7.83l.31.32.28-.21c.6-1.61,1.21-3.24,1.81-4.87,1-2.43,1.86-3.66,2.53-3.68q3,1.49,3,12.69,0,5.55-4.23,21.08l-.86.82.06-.23a13,13,0,0,1-8.25,3c-2.87,0-4.7-.61-5.51-1.83q4.77-5.69,4.77-9.17c0-3-.67-4.57-2-4.57a5.69,5.69,0,0,0-2.9,1.59,15.31,15.31,0,0,0-3.6,4.61,12.05,12.05,0,0,0-1.77,5.54,6.7,6.7,0,0,0,.14,1.37l0,.1a16.87,16.87,0,0,1-3,2.15,9.4,9.4,0,0,1-4.2,1.36,3.85,3.85,0,0,1-2-.39c1.8-2.57,2.69-4.72,2.69-6.48a6.47,6.47,0,0,0-.1-1.22l-3.46,4.13c-1.83,1.51-3.26,2.28-4.28,2.28-2.31,0-3.84-1.86-4.58-5.56a77.66,77.66,0,0,1-.63-8.47c2.3-.79,5.24-2,8.85-3.49q7.05-3,7.36-3.81l-.14-.18A123,123,0,0,1,33,64.46a71.84,71.84,0,0,0-1.81-18,56.38,56.38,0,0,0-1.94,5.82,37.94,37.94,0,0,1,.92,5.54q.57,4.53.57,5.9v1.48a48.7,48.7,0,0,1-5.66,1.47,29,29,0,0,0-5.6,1.59Q11.13,71.74,7.52,77,3.76,82.42,3.76,91.57A9.32,9.32,0,0,0,6.7,98.19a8.77,8.77,0,0,0,6.4,3,14.09,14.09,0,0,0,5-1.12q9.75-3.78,13.5-18.71c.81,3.44,2.45,5.15,4.93,5.15a7,7,0,0,0,4-1.62l0,.1.93-.76a4.59,4.59,0,0,0,4.36,2.64,9.17,9.17,0,0,0,5.16-1.83l0,.13a43.56,43.56,0,0,0,4-3.29,24.52,24.52,0,0,0,3.33,3.51,7.21,7.21,0,0,0,4.44,1.52,12.94,12.94,0,0,0,6.95-2l0,.12c1.11-.79,2-1.41,2.54-1.87l.2,2.81.32.07.31-.47.31-3.2a100,100,0,0,0,9.67-8.3,33,33,0,0,0,7.17-10.51,26.1,26.1,0,0,0,1.59-4.46C91.64,58.26,91.14,57.84,90.15,57.84ZM30.76,69.28q0,8.5-1,11.92a22.33,22.33,0,0,1-6,10.12,14.93,14.93,0,0,1-10.54,4.14,6.62,6.62,0,0,1-5.54-2.59,9.64,9.64,0,0,1-1.91-6.16q0-8.28,9-13.61Q20,69.94,30.76,67ZM56,76.17a4.14,4.14,0,0,1-1.18-2.3c0-.43.52-1.12,1.57-2.08s1.79-1.43,2.23-1.43c1.21,0,1.82.47,1.82,1.4Q60.44,73.8,56,76.17Zm26.2-5.92L74,76.08l1.42-5.43a31.63,31.63,0,0,1,6-4.57q4.41-2.65,6.74-2.66l.24.4Q88.38,65.55,82.2,70.25Z"/><path class="cls-1" d="M127.55,80.13l-1.84-.9a58.48,58.48,0,0,0-3.12,5.11l3.09,2.19a36,36,0,0,0,3.23-4.89A2.88,2.88,0,0,0,127.55,80.13Z"/><path class="cls-1" d="M129.67,49.42c-.85.5-1.7,1.82-2.53,3.95a22.17,22.17,0,0,0-1.36,4.82l.07.25.38,0a6.45,6.45,0,0,1,1.46-2A8.61,8.61,0,0,1,129.25,62v.79a9.31,9.31,0,0,1-2.5,3.49h0c-2.32,2-4.27,3.12-5.79,3.12q-1.53-4.14-2.56-4.6c-1.84,2.78-2.73,5-2.69,6.54a5.68,5.68,0,0,1,1.71,4.07,18.18,18.18,0,0,1-.59,4.31,15,15,0,0,1-4.35,6.8q-3.72,3.68-6.89,3.67a5.45,5.45,0,0,1-4.15-1.64,6.07,6.07,0,0,1-1.55-4.34,20.11,20.11,0,0,1,1.93-7q1.94-4.62,1.93-6t-1.53-1.41q-3.37,0-6.42,3.9a11.73,11.73,0,0,0-2.92,7.29l.21.21.21-.07q2.64-4.53,7.11-4.71-3.33,7.78-3.33,12.39,0,8,6.34,8,5,0,10.09-6.72a29.58,29.58,0,0,0,5.64-11.72l.66-3.18c1.35.11,3.08-.63,5.18-2.17h0l0,0c.17-.12.32-.21.49-.34l.07-.24a19.31,19.31,0,0,0,5.06-9.6,45.15,45.15,0,0,0,1.19-6.19A12.45,12.45,0,0,0,129.67,49.42Z"/><path class="cls-1" d="M111.65,63.59a36,36,0,0,1-3.23,4.89l-3.09-2.19a56.86,56.86,0,0,1,3.13-5.11l1.83.9A2.88,2.88,0,0,1,111.65,63.59Z"/><path class="cls-1" d="M247.12,42.85a29.29,29.29,0,0,0-4.63,6.08,30.08,30.08,0,0,0-3.22,8.25c-1.1,3.59-1.92,6.55-2.47,8.62-1.42,5.36-1.87,7.88-3.49,11.61a43.29,43.29,0,0,1-2.71,5.23,4.6,4.6,0,0,1-3,2.34c-2.14.39-4-1.22-4.72-2.65a3.87,3.87,0,0,1-.43-3.18c.63-1.54,2.28-1.13,3.32-2.65,1.25-1.82.78-5.17-.94-6.1a2.27,2.27,0,0,0-1.61-.22c-1.63.43-2.77,3-2.65,6.32l.09,1.59c.09.75.76,5.91,4.15,7.47,3.84,1.77,10.71-1.35,13.93-9.25a81.69,81.69,0,0,0,2.84-9.69c1.28-5.63,1.23-8.27,2.51-13.79A77.05,77.05,0,0,1,247.12,42.85Z"/><path class="cls-1" d="M227.06,61.49A4.83,4.83,0,0,0,230.4,63,5.17,5.17,0,0,0,235,59.69a20.5,20.5,0,0,0,1.81-3.87,22.73,22.73,0,0,0-.17-14.41,35.21,35.21,0,0,1-4.74,18.82,2.89,2.89,0,0,1-1.47.88,2.44,2.44,0,0,1-1,0,2.78,2.78,0,0,1-1.14-.61c-.71-.64-1.17-3.15-.9-6.49a22.67,22.67,0,0,1,1.19-6.78A22.42,22.42,0,0,1,233,39.58a9.2,9.2,0,0,1,4.77-2.94c3.64-.85,7.65.79,10.33,4.16a4.28,4.28,0,0,0,3.41.61,4.48,4.48,0,0,0,2.25-2,12.57,12.57,0,0,0,2.06-4.82,5.56,5.56,0,0,1-2.7,1.93c-1.61.5-3.07,0-5.14-.64a20.32,20.32,0,0,1-3.09-1.29,11.87,11.87,0,0,0-4.24-.32,13.06,13.06,0,0,0-8.36,4.69,25.91,25.91,0,0,0-5,8.1,24.82,24.82,0,0,0-.78,2.41,17.13,17.13,0,0,0-1,7.39C225.63,58.54,225.79,60.17,227.06,61.49Z"/><path class="cls-1" d="M259.65,71.63a41.48,41.48,0,0,0-4.2,6.94,11.62,11.62,0,0,1-1.56,2.12c-.28.32-.7.77-.89.68a.26.26,0,0,1-.1-.2l3-6.89.9-3.66a29.21,29.21,0,0,0,.48-4.63c.08-3.76-.67-4.65-.92-4.92a4,4,0,0,0-2.3-1.13,5.43,5.43,0,0,0-2.44.47,5.8,5.8,0,0,0-1.67,1.19c-2.1,2.11-3.34,4.94-5.54,8.58-.51.85-2,3.2-1.54,3.55.21.17.83-.22,1.11.07a.68.68,0,0,1,.09.6,35.72,35.72,0,0,0,.05,6.32c.1,1,.37,3.92,2.21,4.77a2.94,2.94,0,0,0,1.5.21c2.8-.17,4.68-2.9,5.11-3.56a2.76,2.76,0,0,0,1.54-.39,3.31,3.31,0,0,0,1.18-1.5c.5-1,1.14-1.85,1.63-2.81a32.78,32.78,0,0,1,2.81-4.73,16.84,16.84,0,0,1,3.11-3.13l.17-.41c0-.18.07-.37.1-.55A12.6,12.6,0,0,0,259.65,71.63Zm-7.71,9.06a9.41,9.41,0,0,1-1.78,2.69c-.59.57-1.47,1.41-2.22,1.17s-1.2-1.4-1.07-2.85c.33-2.15.77-4.44,1.35-6.84a77,77,0,0,1,4.42-12.92c1.08-.87,1.78-1,2.25-.81,1.55.61,1.34,4.94.79,9a36.46,36.46,0,0,1-2.25,7.6C253.07,78.53,252.69,79.25,251.94,80.69Z"/><path class="cls-1" d="M309.89,73.73q-2.22,4.51-4.43,9c-.14.22-1.36,2.17-1.92,2-.4-.15-.31-1.3-.25-1.81q7.65-23.58,15.29-47.17H315q-3.25,8.19-6.79,16.58-6.72,15.89-13.69,30.59c-.46,1.15-1.3,1.79-1.79,1.66s-.95-1.28-.53-2.69q3.66-11,7.33-21.92c-.9.09-1.67.18-2.28.27a5.17,5.17,0,0,0-2.1.49,4.23,4.23,0,0,0-1.31,1.18,5,5,0,0,0-.71,1.28c-1,2.65-5.59,12.83-6.83,15.49-.54,1.15-1.37,2.88-2.51,5-.62,1.09-1.05,1.59-1.28,1.52s-.25-1.33.18-3.65l6.72-21.08c-.48,0-1.18.06-2,.16-1.52.17-1.83.33-2,.46a2.82,2.82,0,0,0-1.06,2c-.09.29-.24.67-.4.66s-.2-.91-.57-1.73a4.19,4.19,0,0,0-1.88-1.88c-1.61-.79-4.62.47-6.7,3.57-1.19,2.05-2.37,4.11-3.56,6.17q-3.32,7.37-6.62,14.75c-.38.45-.67.64-.85.57s-.36-1-.13-2.53q2-8.23,4.06-16.46c3.82-5.69,12.65-19.62,11.38-27.12-.16-.92-.55-3.22-1.73-3.5-1.81-.42-4.25,4.24-4.7,5.11A119,119,0,0,0,267,54.36c-1,3-1.87,5.92-2.57,8.68q-.51,2.79-1,5.58l.18-.1c-.09.22-.18.43-.28.65l-1.57,8.58a3.27,3.27,0,0,0-2.57.58c-1.25,1.12-1.27,3.85.64,6.27Q256,99,252.26,113.36h3.6L262.67,87a2.06,2.06,0,0,0,1.24-.2,2,2,0,0,0,.82-.77q2.89-6,5.81-11.94c0,3.71,0,6.44,0,7.48a4.57,4.57,0,0,0,.18,1.38,4.31,4.31,0,0,0,.56,1.21A3,3,0,0,0,273,85.58a3.23,3.23,0,0,0,3.49-1.66l3.42-5.78c-.38,4.15,0,7.37,1.17,7.72a2.74,2.74,0,0,0,.9,0,3.44,3.44,0,0,0,2.17-1.3c.94-1.59,2.3-4,3.8-6.91,3.26-6.46,5.69-12.75,5.82-12.7s0,.18-.05.23c-.8,2.71-3.19,9.56-3.66,15.28-.35,4.25.6,5,1,5.16a9.7,9.7,0,0,0,1.31.1,3,3,0,0,0,1.61-.34,3.36,3.36,0,0,0,1.59-2.17q5.78-12.69,11.57-25.36l-5.69,18.9c-1,4.7-.56,8.36,1.13,9.11a2.06,2.06,0,0,0,1.32.07,5.79,5.79,0,0,0,1-.65,9.1,9.1,0,0,0,2.39-3.57c.75-1.58.85-2,1.49-3.36s1.16-2.33,1.53-3a1.74,1.74,0,0,0,0-1A1.79,1.79,0,0,0,309.89,73.73ZM268.28,61.27c2-9.52,2.35-10.33,3.29-14.5.63-2.81,1.16-5.54,3.17-8.21.43-.57,1.46-1.92,2.13-1.68.43.15.68.94.61,3-.11,3.59-1.05,6.52-2.5,10.42-1.19,3.17-1.8,4.8-2.92,7.15-.17.36-3.37,7.05-4.07,6.78C267.7,64.09,268,62.81,268.28,61.27ZM280.38,75c-3.23,7.18-4.61,9.42-6.37,9.54a1,1,0,0,1-.61-.1c-1.45-.81.08-5.85,1.77-11.28.45-1.44,3.48-11.05,6-11.4a1.68,1.68,0,0,1,.9.12c1,.51,1.05,2.24,1.06,3C283.24,68.49,281.17,73.19,280.38,75Z"/><path class="cls-1" d="M263.44,68.62c0,.18-.06.37-.1.55.1-.22.19-.43.28-.65Z"/><path class="cls-1" d="M208.28,73.74c-.07,0-.19.11-.44.7a28.48,28.48,0,0,1-1.18,3.15,29.19,29.19,0,0,1-2.8,4.92c-.93,1.42-1.94,2.32-2.38,2.11s-.42-1.64.2-3.46A47.43,47.43,0,0,0,206,63.93c.11-1.94-.91-3.46-2.15-3.71a2.48,2.48,0,0,0-1.8.42,21.55,21.55,0,0,0-3.45,4.92c-1.29,2.52-4.46,10-5.39,11.48-.09.15-.35.57-.43.53s0-.37.11-.63a35.18,35.18,0,0,0,3.18-15A2.74,2.74,0,0,0,194.43,60a2.39,2.39,0,0,0-1.52,0,4.8,4.8,0,0,0-1.37.91,4.59,4.59,0,0,0-1,1.43c-.55,1.14-3.28,7-7,15.08a1.46,1.46,0,0,1-1.67.64,31.63,31.63,0,0,0,1.75-4,32.55,32.55,0,0,0,1.91-11.42,3.34,3.34,0,0,0-.55-2,1.49,1.49,0,0,0-1-.67H184c-.21,0-.81.12-1.84,1.6a11.78,11.78,0,0,0-1.39,2.63,23.11,23.11,0,0,0-1.15,4.89c-.08.75-.14,1.39-.19,1.89,0,0-.6,6.18.38,7.07a.77.77,0,0,1,.23.36.87.87,0,0,1-.2.67,13.88,13.88,0,0,1-.8,1.45c-1.19,1.88-3.42,4.5-4.31,4.11s-.88-2.84.13-5.91q2.76-9.91,6.17-20.44,3.86-11.81,7.94-22.51l-.37.05a14.46,14.46,0,0,1-2.17,0c-.58,0-.88,0-1.16.18a1.14,1.14,0,0,0-.28.34c-.37.69-11.48,26.79-15.72,36.74-.23.66-.23,1.17,0,1.28s.48-.14.61-.25q3.66-8.13,7.33-16.26c.39-.43.63-.63.7-.58s0,.25-.13.61c-1.43,3.42-2.84,7.21-4.11,11.35-.89,2.91-1.63,5.7-2.25,8.35-.55,4.5,1,7.74,2.89,8.12.29.06,1.35.21,2.9-1.14a14.06,14.06,0,0,0,2.46-3.07,13.46,13.46,0,0,0,1.13-2.43.48.48,0,0,1,.19-.26c.39-.22.88.68,1.69.69s1.52-1,1.59-1a3.68,3.68,0,0,0,.2-.34c.61-1.26,3.68-8.71,5.78-12.86.31-.59,2.25-4.4,3-4.13s0,3.86-.12,4.65l-6.81,19.92a7.76,7.76,0,0,0,3.58-.45,7.56,7.56,0,0,0,2-1.16c.89-2.52,1.89-5.15,3-7.85,1.83-4.33,3.75-8.28,5.68-11.85q2-3.48,2.63-3.24c.32.12.39.93.21,2.44A53,53,0,0,0,200,72.42a52.32,52.32,0,0,0-1.55,7.35c-.59,3.49,1,6,2.61,6.21s3-2,3.11-2.16A39.42,39.42,0,0,0,206.92,79c.26-.57.06-.19,1-2.45a6.17,6.17,0,0,0,.42-1.46C208.4,74.53,208.42,73.77,208.28,73.74Zm-27.2,3.75a.88.88,0,0,1-.48-.12c-.64-.39-.54-1.54-.42-3.25a38.3,38.3,0,0,1,.35-4.43c.37-1.75.66-3.09,1.64-3.44a1.5,1.5,0,0,1,1.25.09c.47.33.73,1.13-.22,5.66C182.19,76.81,181.57,77.45,181.08,77.49Z"/><circle class="cls-1" cx="292" cy="51.46" r="2.4"/><circle class="cls-1" cx="298.49" cy="51.46" r="2.4"/><path class="cls-1" d="M217.9,22.54a6.22,6.22,0,0,1-1.61,4.6,7.89,7.89,0,0,1-9.5,0,6.21,6.21,0,0,1-1.61-4.59V12.23h3.71V22.31a4.11,4.11,0,0,0,.62,2.51,2.39,2.39,0,0,0,2,.83,2.45,2.45,0,0,0,2-.8,4.06,4.06,0,0,0,.64-2.54V12.23h3.7Z"/><path class="cls-1" d="M232,28.39h-3.47v-6a14.19,14.19,0,0,0-.07-1.47,3.25,3.25,0,0,0-.23-1.08,1.19,1.19,0,0,0-.56-.59,2.39,2.39,0,0,0-1-.19,2.76,2.76,0,0,0-1,.18,4.86,4.86,0,0,0-1,.55v8.64h-3.45V16.2h3.45v1.35a8.8,8.8,0,0,1,1.77-1.25,4.11,4.11,0,0,1,1.89-.44A3.41,3.41,0,0,1,231,17a5.14,5.14,0,0,1,1,3.44Z"/><path class="cls-1" d="M238.71,14.46h-3.64v-3h3.64Zm-.09,13.93h-3.46V16.2h3.46Z"/><path class="cls-1" d="M252.74,16.2l-4.16,12.19h-3.92L240.54,16.2h3.65l2.5,8.38,2.47-8.38Z"/><path class="cls-1" d="M265.28,23h-7.91a2.92,2.92,0,0,0,1,2.19A3.9,3.9,0,0,0,261,26a5.23,5.23,0,0,0,2.12-.44,6.65,6.65,0,0,0,1.62-1h.38v3.14a11.39,11.39,0,0,1-2.2.77,10.22,10.22,0,0,1-2.3.24,6.92,6.92,0,0,1-5-1.65,6.21,6.21,0,0,1-1.73-4.7,6.75,6.75,0,0,1,1.64-4.78A5.82,5.82,0,0,1,260,15.82,5,5,0,0,1,264,17.33a6.34,6.34,0,0,1,1.33,4.32Zm-3.44-2.29a3,3,0,0,0-.54-1.85,1.94,1.94,0,0,0-1.58-.62,2.32,2.32,0,0,0-1.64.59,2.65,2.65,0,0,0-.72,1.88Z"/><path class="cls-1" d="M275.53,19.93h-.31a2.36,2.36,0,0,0-.71-.13c-.33,0-.6-.05-.82-.05a7.17,7.17,0,0,0-1.3.11,6.92,6.92,0,0,0-1.22.37v8.16h-3.46V16.2h3.46V18a7,7,0,0,1,2-1.47,4,4,0,0,1,1.55-.36h.42l.4,0Z"/><path class="cls-1" d="M286.86,24.53a3.68,3.68,0,0,1-1.5,3,6.57,6.57,0,0,1-4.1,1.15,10.51,10.51,0,0,1-2.61-.3,9.24,9.24,0,0,1-1.88-.68V24.54h.31l.6.45a6.2,6.2,0,0,0,1,.53,7.86,7.86,0,0,0,1.22.43,5.67,5.67,0,0,0,1.46.18,3.36,3.36,0,0,0,1.5-.26.8.8,0,0,0,.49-.75.73.73,0,0,0-.28-.65,3.85,3.85,0,0,0-1.1-.39l-1-.21a10.76,10.76,0,0,1-1.2-.27,4.12,4.12,0,0,1-2.18-1.36,3.78,3.78,0,0,1,.77-5.21,6.29,6.29,0,0,1,4-1.17,9.76,9.76,0,0,1,2.32.28,9.13,9.13,0,0,1,1.74.59v3.09h-.3a6.74,6.74,0,0,0-1.75-1,5.59,5.59,0,0,0-2-.38,3.43,3.43,0,0,0-1.4.26.84.84,0,0,0-.31,1.4,3.23,3.23,0,0,0,1.22.46c.35.08.73.16,1.13.23s.82.17,1.23.29a3.76,3.76,0,0,1,2,1.26A3.47,3.47,0,0,1,286.86,24.53Z"/><path class="cls-1" d="M292.7,14.46h-3.65v-3h3.65Zm-.09,13.93h-3.46V16.2h3.46Z"/><path class="cls-1" d="M302.76,28.29a9.8,9.8,0,0,1-1.18.25,10.84,10.84,0,0,1-1.53.09,4.2,4.2,0,0,1-3-.92,4.18,4.18,0,0,1-1-3.16v-5.7h-1.42V16.2h1.42V12.72h3.46V16.2h3.23v2.65h-3.23v4.32c0,.43,0,.8,0,1.12a2.31,2.31,0,0,0,.15.86,1.18,1.18,0,0,0,.48.6,1.77,1.77,0,0,0,1,.22,2.44,2.44,0,0,0,.7-.13,2,2,0,0,0,.61-.24h.29Z"/><path class="cls-1" d="M315.42,23h-7.91a3,3,0,0,0,1,2.19,3.9,3.9,0,0,0,2.62.76,5.23,5.23,0,0,0,2.12-.44,6.65,6.65,0,0,0,1.62-1h.38v3.14a11.39,11.39,0,0,1-2.2.77,10.28,10.28,0,0,1-2.3.24,6.92,6.92,0,0,1-5-1.65,6.21,6.21,0,0,1-1.73-4.7,6.75,6.75,0,0,1,1.64-4.78,5.79,5.79,0,0,1,4.48-1.77,5,5,0,0,1,4,1.51,6.34,6.34,0,0,1,1.32,4.32Zm-9.1-6.63,1.46-4.21h3.16l-3.47,4.21ZM312,20.73a3,3,0,0,0-.54-1.85,1.94,1.94,0,0,0-1.58-.62,2.32,2.32,0,0,0-1.64.59,2.7,2.7,0,0,0-.73,1.88Z"/></g></g></svg>